<?xml version="1.0" encoding="UTF-8"?>
<svg xmlns="http://www.w3.org/2000/svg" xmlns:xlink="http://www.w3.org/1999/xlink"
     width="22000.0" height="12000.0" viewBox="-11000.0 -6000.0 22000.0 12000.0">
<defs>
<style type="text/css">
.l20d0 {stroke: rgb(255, 85, 147); fill: rgb(255, 85, 147); fill-opacity: 0.5;}
.l10d0 {stroke: rgb(42, 139, 255); fill: rgb(42, 139, 255); fill-opacity: 0.5;}
.l6d0 {stroke: rgb(255, 197, 128); fill: rgb(255, 197, 128); fill-opacity: 0.5;}
.l14d0 {stroke: rgb(255, 128, 243); fill: rgb(255, 128, 243); fill-opacity: 0.5;}
</style>
</defs>
<rect x="-11000.0" y="-6000.0" width="22000.0" height="12000.0" fill="#222" stroke="none"/>
<g id="Sliced" transform="scale(1 -1)">
<polygon class="l14d0" points="-4660.0,-590.0 -4620.0,-590.0 -4610.0,-580.0 -4570.0,-580.0 -4560.0,-570.0 -4540.0,-570.0 -4530.0,-560.0 -4520.0,-560.0 -4510.0,-550.0 -4500.0,-550.0 -4490.0,-540.0 -4480.0,-540.0 -4470.0,-530.0 -4460.0,-530.0 -4450.0,-520.0 -4440.0,-520.0 -4430.0,-510.0 -4420.0,-510.0 -4410.0,-500.0 -4400.0,-500.0 -4400.0,-490.0 -4390.0,-490.0 -4370.0,-470.0 -4360.0,-470.0 -4350.0,-460.0 -4350.0,-450.0 -4340.0,-450.0 -4320.0,-430.0 -4320.0,-420.0 -4310.0,-420.0 -4290.0,-400.0 -4290.0,-390.0 -4280.0,-390.0 -4270.0,-380.0 -4270.0,-370.0 -4250.0,-350.0 -4250.0,-340.0 -4240.0,-340.0 -4240.0,-330.0 -4230.0,-320.0 -4230.0,-310.0 -4220.0,-300.0 -4220.0,-290.0 -4210.0,-280.0 -4210.0,-270.0 -4200.0,-260.0 -4200.0,-250.0 -4190.0,-240.0 -4190.0,-230.0 -4180.0,-220.0 -4180.0,-210.0 -4170.0,-200.0 -4170.0,-180.0 -4160.0,-170.0 -4160.0,-130.0 -4150.0,-120.0 -4150.0,-80.0 -4140.0,-70.0 -4140.0,70.0 -4150.0,80.0 -4150.0,120.0 -4160.0,130.0 -4160.0,170.0 -4170.0,180.0 -4170.0,200.0 -4180.0,210.0 -4180.0,220.0 -4190.0,230.0 -4190.0,240.0 -4200.0,250.0 -4200.0,260.0 -4210.0,270.0 -4210.0,280.0 -4220.0,290.0 -4220.0,300.0 -4230.0,310.0 -4230.0,320.0 -4240.0,330.0 -4240.0,340.0 -4250.0,340.0 -4250.0,350.0 -4270.0,370.0 -4270.0,380.0 -4280.0,390.0 -4290.0,390.0 -4290.0,400.0 -4310.0,420.0 -4320.0,420.0 -4320.0,430.0 -4340.0,450.0 -4350.0,450.0 -4350.0,460.0 -4360.0,470.0 -4370.0,470.0 -4390.0,490.0 -4400.0,490.0 -4400.0,500.0 -4410.0,500.0 -4420.0,510.0 -4430.0,510.0 -4440.0,520.0 -4450.0,520.0 -4460.0,530.0 -4470.0,530.0 -4480.0,540.0 -4490.0,540.0 -4500.0,550.0 -4510.0,550.0 -4520.0,560.0 -4530.0,560.0 -4540.0,570.0 -4560.0,570.0 -4570.0,580.0 -4590.0,580.0 -4590.0,1960.0 -6626.3,5000.0 -7184.52,5000.0 -4890.0,1760.0 -4890.0,580.0 -4910.0,580.0 -4920.0,570.0 -4940.0,570.0 -4950.0,560.0 -4960.0,560.0 -4970.0,550.0 -4980.0,550.0 -4990.0,540.0 -5000.0,540.0 -5010.0,530.0 -5020.0,530.0 -5030.0,520.0 -5040.0,520.0 -5050.0,510.0 -5060.0,510.0 -5070.0,500.0 -5080.0,500.0 -5080.0,490.0 -5090.0,490.0 -5110.0,470.0 -5120.0,470.0 -5130.0,460.0 -5130.0,450.0 -5140.0,450.0 -5160.0,430.0 -5160.0,420.0 -5170.0,420.0 -5190.0,400.0 -5190.0,390.0 -5200.0,390.0 -5210.0,380.0 -5210.0,370.0 -5230.0,350.0 -5230.0,340.0 -5240.0,340.0 -5240.0,330.0 -5250.0,320.0 -5250.0,310.0 -5260.0,300.0 -5260.0,290.0 -5270.0,280.0 -5270.0,270.0 -5280.0,260.0 -5280.0,250.0 -5290.0,240.0 -5290.0,230.0 -5300.0,220.0 -5300.0,210.0 -5310.0,200.0 -5310.0,180.0 -5320.0,170.0 -5320.0,130.0 -5330.0,120.0 -5330.0,80.0 -5340.0,70.0 -5340.0,-70.0 -5330.0,-80.0 -5330.0,-120.0 -5320.0,-130.0 -5320.0,-170.0 -5310.0,-180.0 -5310.0,-200.0 -5300.0,-210.0 -5300.0,-220.0 -5290.0,-230.0 -5290.0,-240.0 -5280.0,-250.0 -5280.0,-260.0 -5270.0,-270.0 -5270.0,-280.0 -5260.0,-290.0 -5260.0,-300.0 -5250.0,-310.0 -5250.0,-320.0 -5240.0,-330.0 -5240.0,-340.0 -5230.0,-340.0 -5230.0,-350.0 -5210.0,-370.0 -5210.0,-380.0 -5200.0,-390.0 -5190.0,-390.0 -5190.0,-400.0 -5170.0,-420.0 -5160.0,-420.0 -5160.0,-430.0 -5140.0,-450.0 -5130.0,-450.0 -5130.0,-460.0 -5120.0,-470.0 -5110.0,-470.0 -5090.0,-490.0 -5080.0,-490.0 -5080.0,-500.0 -5070.0,-500.0 -5060.0,-510.0 -5050.0,-510.0 -5040.0,-520.0 -5030.0,-520.0 -5020.0,-530.0 -5010.0,-530.0 -5000.0,-540.0 -4990.0,-540.0 -4980.0,-550.0 -4970.0,-550.0 -4960.0,-560.0 -4950.0,-560.0 -4940.0,-570.0 -4920.0,-570.0 -4910.0,-580.0 -4870.0,-580.0 -4860.0,-590.0 -4820.0,-590.0 -4810.0,-600.0 -4670.0,-600.0"/>
<polygon class="l14d0" points="-3240.0,-590.0 -3200.0,-590.0 -3190.0,-580.0 -3150.0,-580.0 -3140.0,-570.0 -3120.0,-570.0 -3110.0,-560.0 -3100.0,-560.0 -3090.0,-550.0 -3080.0,-550.0 -3070.0,-540.0 -3060.0,-540.0 -3050.0,-530.0 -3040.0,-530.0 -3030.0,-520.0 -3020.0,-520.0 -3010.0,-510.0 -3000.0,-510.0 -2990.0,-500.0 -2980.0,-500.0 -2980.0,-490.0 -2970.0,-490.0 -2950.0,-470.0 -2940.0,-470.0 -2930.0,-460.0 -2930.0,-450.0 -2920.0,-450.0 -2900.0,-430.0 -2900.0,-420.0 -2890.0,-420.0 -2870.0,-400.0 -2870.0,-390.0 -2860.0,-390.0 -2850.0,-380.0 -2850.0,-370.0 -2830.0,-350.0 -2830.0,-340.0 -2820.0,-340.0 -2820.0,-330.0 -2810.0,-320.0 -2810.0,-310.0 -2800.0,-300.0 -2800.0,-290.0 -2790.0,-280.0 -2790.0,-270.0 -2780.0,-260.0 -2780.0,-250.0 -2770.0,-240.0 -2770.0,-230.0 -2760.0,-220.0 -2760.0,-210.0 -2750.0,-200.0 -2750.0,-180.0 -2740.0,-170.0 -2740.0,-130.0 -2730.0,-120.0 -2730.0,-80.0 -2720.0,-70.0 -2720.0,70.0 -2730.0,80.0 -2730.0,120.0 -2740.0,130.0 -2740.0,170.0 -2750.0,180.0 -2750.0,200.0 -2760.0,210.0 -2760.0,220.0 -2770.0,230.0 -2770.0,240.0 -2780.0,250.0 -2780.0,260.0 -2790.0,270.0 -2790.0,280.0 -2800.0,290.0 -2800.0,300.0 -2810.0,310.0 -2810.0,320.0 -2820.0,330.0 -2820.0,340.0 -2830.0,340.0 -2830.0,350.0 -2850.0,370.0 -2850.0,380.0 -2860.0,390.0 -2870.0,390.0 -2870.0,400.0 -2890.0,420.0 -2900.0,420.0 -2900.0,430.0 -2920.0,450.0 -2930.0,450.0 -2930.0,460.0 -2940.0,470.0 -2950.0,470.0 -2970.0,490.0 -2980.0,490.0 -2980.0,500.0 -2990.0,500.0 -3000.0,510.0 -3010.0,510.0 -3020.0,520.0 -3030.0,520.0 -3040.0,530.0 -3050.0,530.0 -3060.0,540.0 -3070.0,540.0 -3080.0,550.0 -3090.0,550.0 -3100.0,560.0 -3110.0,560.0 -3120.0,570.0 -3140.0,570.0 -3150.0,580.0 -3170.0,580.0 -3170.0,1860.0 -3808.2300000000005,5000.0 -4254.28,5000.0 -3470.0,1760.0 -3470.0,580.0 -3490.0,580.0 -3500.0,570.0 -3520.0,570.0 -3530.0,560.0 -3540.0,560.0 -3550.0,550.0 -3560.0,550.0 -3570.0,540.0 -3580.0,540.0 -3590.0,530.0 -3600.0,530.0 -3610.0,520.0 -3620.0,520.0 -3630.0,510.0 -3640.0,510.0 -3650.0,500.0 -3660.0,500.0 -3660.0,490.0 -3670.0,490.0 -3690.0,470.0 -3700.0,470.0 -3710.0,460.0 -3710.0,450.0 -3720.0,450.0 -3740.0,430.0 -3740.0,420.0 -3750.0,420.0 -3770.0,400.0 -3770.0,390.0 -3780.0,390.0 -3790.0,380.0 -3790.0,370.0 -3810.0,350.0 -3810.0,340.0 -3820.0,340.0 -3820.0,330.0 -3830.0,320.0 -3830.0,310.0 -3840.0,300.0 -3840.0,290.0 -3850.0,280.0 -3850.0,270.0 -3860.0,260.0 -3860.0,250.0 -3870.0,240.0 -3870.0,230.0 -3880.0,220.0 -3880.0,210.0 -3890.0,200.0 -3890.0,180.0 -3900.0,170.0 -3900.0,130.0 -3910.0,120.0 -3910.0,80.0 -3920.0,70.0 -3920.0,-70.0 -3910.0,-80.0 -3910.0,-120.0 -3900.0,-130.0 -3900.0,-170.0 -3890.0,-180.0 -3890.0,-200.0 -3880.0,-210.0 -3880.0,-220.0 -3870.0,-230.0 -3870.0,-240.0 -3860.0,-250.0 -3860.0,-260.0 -3850.0,-270.0 -3850.0,-280.0 -3840.0,-290.0 -3840.0,-300.0 -3830.0,-310.0 -3830.0,-320.0 -3820.0,-330.0 -3820.0,-340.0 -3810.0,-340.0 -3810.0,-350.0 -3790.0,-370.0 -3790.0,-380.0 -3780.0,-390.0 -3770.0,-390.0 -3770.0,-400.0 -3750.0,-420.0 -3740.0,-420.0 -3740.0,-430.0 -3720.0,-450.0 -3710.0,-450.0 -3710.0,-460.0 -3700.0,-470.0 -3690.0,-470.0 -3670.0,-490.0 -3660.0,-490.0 -3660.0,-500.0 -3650.0,-500.0 -3640.0,-510.0 -3630.0,-510.0 -3620.0,-520.0 -3610.0,-520.0 -3600.0,-530.0 -3590.0,-530.0 -3580.0,-540.0 -3570.0,-540.0 -3560.0,-550.0 -3550.0,-550.0 -3540.0,-560.0 -3530.0,-560.0 -3520.0,-570.0 -3500.0,-570.0 -3490.0,-580.0 -3450.0,-580.0 -3440.0,-590.0 -3400.0,-590.0 -3390.0,-600.0 -3250.0,-600.0"/>
<polygon class="l14d0" points="-6350.0,-890.0 -6300.0,-890.0 -6290.0,-880.0 -6260.0,-880.0 -6240.0,-870.0 -6210.0,-870.0 -6200.0,-860.0 -6180.0,-860.0 -6170.0,-850.0 -6150.0,-850.0 -6140.0,-840.0 -6120.0,-830.0 -6110.0,-830.0 -6090.0,-820.0 -6080.0,-820.0 -6070.0,-810.0 -6050.0,-800.0 -6040.0,-790.0 -6020.0,-790.0 -6000.0,-770.0 -5980.0,-760.0 -5970.0,-750.0 -5960.0,-750.0 -5940.0,-740.0 -5910.0,-710.0 -5890.0,-700.0 -5850.0,-660.0 -5830.0,-650.0 -5810.0,-630.0 -5800.0,-610.0 -5760.0,-570.0 -5750.0,-550.0 -5720.0,-520.0 -5710.0,-500.0 -5710.0,-490.0 -5700.0,-480.0 -5690.0,-460.0 -5670.0,-440.0 -5670.0,-420.0 -5660.0,-410.0 -5650.0,-390.0 -5640.0,-380.0 -5640.0,-370.0 -5630.0,-350.0 -5630.0,-340.0 -5620.0,-320.0 -5610.0,-310.0 -5610.0,-290.0 -5600.0,-280.0 -5600.0,-260.0 -5590.0,-250.0 -5590.0,-220.0 -5580.0,-200.0 -5580.0,-170.0 -5570.0,-160.0 -5570.0,-110.0 -5560.0,-90.0 -5560.0,90.0 -5570.0,110.0 -5570.0,160.0 -5580.0,170.0 -5580.0,200.0 -5590.0,220.0 -5590.0,250.0 -5600.0,260.0 -5600.0,280.0 -5610.0,290.0 -5610.0,310.0 -5620.0,320.0 -5630.0,340.0 -5630.0,350.0 -5640.0,370.0 -5640.0,380.0 -5650.0,390.0 -5660.0,410.0 -5670.0,420.0 -5670.0,440.0 -5690.0,460.0 -5700.0,480.0 -5710.0,490.0 -5710.0,500.0 -5720.0,520.0 -5750.0,550.0 -5760.0,570.0 -5800.0,610.0 -5810.0,630.0 -5830.0,650.0 -5850.0,660.0 -5890.0,700.0 -5910.0,710.0 -5940.0,740.0 -5960.0,750.0 -5970.0,750.0 -5980.0,760.0 -6000.0,770.0 -6020.0,790.0 -6040.0,790.0 -6050.0,800.0 -6070.0,810.0 -6080.0,820.0 -6090.0,820.0 -6110.0,830.0 -6120.0,830.0 -6140.0,840.0 -6150.0,850.0 -6170.0,850.0 -6180.0,860.0 -6200.0,860.0 -6210.0,870.0 -6240.0,870.0 -6260.0,880.0 -6290.0,880.0 -6300.0,890.0 -6350.0,890.0 -6370.0,900.0 -6550.0,900.0 -6570.0,890.0 -6620.0,890.0 -6630.0,880.0 -6660.0,880.0 -6680.0,870.0 -6710.0,870.0 -6720.0,860.0 -6740.0,860.0 -6750.0,850.0 -6770.0,850.0 -6780.0,840.0 -6800.0,830.0 -6810.0,830.0 -6830.0,820.0 -6840.0,820.0 -6850.0,810.0 -6870.0,800.0 -6880.0,790.0 -6900.0,790.0 -6920.0,770.0 -6940.0,760.0 -6950.0,750.0 -6960.0,750.0 -6980.0,740.0 -7010.0,710.0 -7030.0,700.0 -7070.0,660.0 -7090.0,650.0 -7110.0,630.0 -7120.0,610.0 -7160.0,570.0 -7170.0,550.0 -7200.0,520.0 -7210.0,500.0 -7210.0,490.0 -7220.0,480.0 -7230.0,460.0 -7250.0,440.0 -7250.0,420.0 -7260.0,410.0 -7270.0,390.0 -7280.0,380.0 -7280.0,370.0 -7290.0,350.0 -7290.0,340.0 -7300.0,320.0 -7310.0,310.0 -7310.0,290.0 -7320.0,280.0 -7320.0,260.0 -7330.0,250.0 -7330.0,220.0 -7340.0,200.0 -7340.0,170.0 -7350.0,160.0 -7350.0,150.0 -8520.0,150.0 -10000.0,307.33 -10000.0,-52.12 -8520.0,-150.0 -7350.0,-150.0 -7350.0,-160.0 -7340.0,-170.0 -7340.0,-200.0 -7330.0,-220.0 -7330.0,-250.0 -7320.0,-260.0 -7320.0,-280.0 -7310.0,-290.0 -7310.0,-310.0 -7300.0,-320.0 -7290.0,-340.0 -7290.0,-350.0 -7280.0,-370.0 -7280.0,-380.0 -7270.0,-390.0 -7260.0,-410.0 -7250.0,-420.0 -7250.0,-440.0 -7230.0,-460.0 -7220.0,-480.0 -7210.0,-490.0 -7210.0,-500.0 -7200.0,-520.0 -7170.0,-550.0 -7160.0,-570.0 -7120.0,-610.0 -7110.0,-630.0 -7090.0,-650.0 -7070.0,-660.0 -7030.0,-700.0 -7010.0,-710.0 -6980.0,-740.0 -6960.0,-750.0 -6950.0,-750.0 -6940.0,-760.0 -6920.0,-770.0 -6900.0,-790.0 -6880.0,-790.0 -6870.0,-800.0 -6850.0,-810.0 -6840.0,-820.0 -6830.0,-820.0 -6810.0,-830.0 -6800.0,-830.0 -6780.0,-840.0 -6770.0,-850.0 -6750.0,-850.0 -6740.0,-860.0 -6720.0,-860.0 -6710.0,-870.0 -6680.0,-870.0 -6660.0,-880.0 -6630.0,-880.0 -6620.0,-890.0 -6570.0,-890.0 -6550.0,-900.0 -6370.0,-900.0"/>
<polygon class="l14d0" points="6570.0,-890.0 6620.0,-890.0 6630.0,-880.0 6660.0,-880.0 6680.0,-870.0 6710.0,-870.0 6720.0,-860.0 6740.0,-860.0 6750.0,-850.0 6770.0,-850.0 6780.0,-840.0 6800.0,-830.0 6810.0,-830.0 6830.0,-820.0 6840.0,-820.0 6850.0,-810.0 6870.0,-800.0 6880.0,-790.0 6900.0,-790.0 6920.0,-770.0 6940.0,-760.0 6950.0,-750.0 6960.0,-750.0 6980.0,-740.0 7010.0,-710.0 7030.0,-700.0 7070.0,-660.0 7090.0,-650.0 7110.0,-630.0 7120.0,-610.0 7160.0,-570.0 7170.0,-550.0 7200.0,-520.0 7210.0,-500.0 7210.0,-490.0 7220.0,-480.0 7230.0,-460.0 7250.0,-440.0 7250.0,-420.0 7260.0,-410.0 7270.0,-390.0 7280.0,-380.0 7280.0,-370.0 7290.0,-350.0 7290.0,-340.0 7300.0,-320.0 7310.0,-310.0 7310.0,-290.0 7320.0,-280.0 7320.0,-260.0 7330.0,-250.0 7330.0,-220.0 7340.0,-200.0 7340.0,-170.0 7350.0,-160.0 7350.0,-150.0 8520.0,-150.0 10000.0,-292.62 10000.0,66.83 8520.0,150.0 7350.0,150.0 7350.0,160.0 7340.0,170.0 7340.0,200.0 7330.0,220.0 7330.0,250.0 7320.0,260.0 7320.0,280.0 7310.0,290.0 7310.0,310.0 7300.0,320.0 7290.0,340.0 7290.0,350.0 7280.0,370.0 7280.0,380.0 7270.0,390.0 7260.0,410.0 7250.0,420.0 7250.0,440.0 7230.0,460.0 7220.0,480.0 7210.0,490.0 7210.0,500.0 7200.0,520.0 7170.0,550.0 7160.0,570.0 7120.0,610.0 7110.0,630.0 7090.0,650.0 7070.0,660.0 7030.0,700.0 7010.0,710.0 6980.0,740.0 6960.0,750.0 6950.0,750.0 6940.0,760.0 6920.0,770.0 6900.0,790.0 6880.0,790.0 6870.0,800.0 6850.0,810.0 6840.0,820.0 6830.0,820.0 6810.0,830.0 6800.0,830.0 6780.0,840.0 6770.0,850.0 6750.0,850.0 6740.0,860.0 6720.0,860.0 6710.0,870.0 6680.0,870.0 6660.0,880.0 6630.0,880.0 6620.0,890.0 6570.0,890.0 6550.0,900.0 6370.0,900.0 6350.0,890.0 6300.0,890.0 6290.0,880.0 6260.0,880.0 6240.0,870.0 6210.0,870.0 6200.0,860.0 6180.0,860.0 6170.0,850.0 6150.0,850.0 6140.0,840.0 6120.0,830.0 6110.0,830.0 6090.0,820.0 6080.0,820.0 6070.0,810.0 6050.0,800.0 6040.0,790.0 6020.0,790.0 6000.0,770.0 5980.0,760.0 5970.0,750.0 5960.0,750.0 5940.0,740.0 5910.0,710.0 5890.0,700.0 5850.0,660.0 5830.0,650.0 5810.0,630.0 5800.0,610.0 5760.0,570.0 5750.0,550.0 5720.0,520.0 5710.0,500.0 5710.0,490.0 5700.0,480.0 5690.0,460.0 5670.0,440.0 5670.0,420.0 5660.0,410.0 5650.0,390.0 5640.0,380.0 5640.0,370.0 5630.0,350.0 5630.0,340.0 5620.0,320.0 5610.0,310.0 5610.0,290.0 5600.0,280.0 5600.0,260.0 5590.0,250.0 5590.0,220.0 5580.0,200.0 5580.0,170.0 5570.0,160.0 5570.0,110.0 5560.0,90.0 5560.0,-90.0 5570.0,-110.0 5570.0,-160.0 5580.0,-170.0 5580.0,-200.0 5590.0,-220.0 5590.0,-250.0 5600.0,-260.0 5600.0,-280.0 5610.0,-290.0 5610.0,-310.0 5620.0,-320.0 5630.0,-340.0 5630.0,-350.0 5640.0,-370.0 5640.0,-380.0 5650.0,-390.0 5660.0,-410.0 5670.0,-420.0 5670.0,-440.0 5690.0,-460.0 5700.0,-480.0 5710.0,-490.0 5710.0,-500.0 5720.0,-520.0 5750.0,-550.0 5760.0,-570.0 5800.0,-610.0 5810.0,-630.0 5830.0,-650.0 5850.0,-660.0 5890.0,-700.0 5910.0,-710.0 5940.0,-740.0 5960.0,-750.0 5970.0,-750.0 5980.0,-760.0 6000.0,-770.0 6020.0,-790.0 6040.0,-790.0 6050.0,-800.0 6070.0,-810.0 6080.0,-820.0 6090.0,-820.0 6110.0,-830.0 6120.0,-830.0 6140.0,-840.0 6150.0,-850.0 6170.0,-850.0 6180.0,-860.0 6200.0,-860.0 6210.0,-870.0 6240.0,-870.0 6260.0,-880.0 6290.0,-880.0 6300.0,-890.0 6350.0,-890.0 6370.0,-900.0 6550.0,-900.0"/>
<polygon class="l14d0" points="3470.0,-1760.0 3470.0,-580.0 3490.0,-580.0 3500.0,-570.0 3520.0,-570.0 3530.0,-560.0 3540.0,-560.0 3550.0,-550.0 3560.0,-550.0 3570.0,-540.0 3580.0,-540.0 3590.0,-530.0 3600.0,-530.0 3610.0,-520.0 3620.0,-520.0 3630.0,-510.0 3640.0,-510.0 3650.0,-500.0 3660.0,-500.0 3660.0,-490.0 3670.0,-490.0 3690.0,-470.0 3700.0,-470.0 3710.0,-460.0 3710.0,-450.0 3720.0,-450.0 3740.0,-430.0 3740.0,-420.0 3750.0,-420.0 3770.0,-400.0 3770.0,-390.0 3780.0,-390.0 3790.0,-380.0 3790.0,-370.0 3810.0,-350.0 3810.0,-340.0 3820.0,-340.0 3820.0,-330.0 3830.0,-320.0 3830.0,-310.0 3840.0,-300.0 3840.0,-290.0 3850.0,-280.0 3850.0,-270.0 3860.0,-260.0 3860.0,-250.0 3870.0,-240.0 3870.0,-230.0 3880.0,-220.0 3880.0,-210.0 3890.0,-200.0 3890.0,-180.0 3900.0,-170.0 3900.0,-130.0 3910.0,-120.0 3910.0,-80.0 3920.0,-70.0 3920.0,70.0 3910.0,80.0 3910.0,120.0 3900.0,130.0 3900.0,170.0 3890.0,180.0 3890.0,200.0 3880.0,210.0 3880.0,220.0 3870.0,230.0 3870.0,240.0 3860.0,250.0 3860.0,260.0 3850.0,270.0 3850.0,280.0 3840.0,290.0 3840.0,300.0 3830.0,310.0 3830.0,320.0 3820.0,330.0 3820.0,340.0 3810.0,340.0 3810.0,350.0 3790.0,370.0 3790.0,380.0 3780.0,390.0 3770.0,390.0 3770.0,400.0 3750.0,420.0 3740.0,420.0 3740.0,430.0 3720.0,450.0 3710.0,450.0 3710.0,460.0 3700.0,470.0 3690.0,470.0 3670.0,490.0 3660.0,490.0 3660.0,500.0 3650.0,500.0 3640.0,510.0 3630.0,510.0 3620.0,520.0 3610.0,520.0 3600.0,530.0 3590.0,530.0 3580.0,540.0 3570.0,540.0 3560.0,550.0 3550.0,550.0 3540.0,560.0 3530.0,560.0 3520.0,570.0 3500.0,570.0 3490.0,580.0 3450.0,580.0 3440.0,590.0 3400.0,590.0 3390.0,600.0 3250.0,600.0 3240.0,590.0 3200.0,590.0 3190.0,580.0 3150.0,580.0 3140.0,570.0 3120.0,570.0 3110.0,560.0 3100.0,560.0 3090.0,550.0 3080.0,550.0 3070.0,540.0 3060.0,540.0 3050.0,530.0 3040.0,530.0 3030.0,520.0 3020.0,520.0 3010.0,510.0 3000.0,510.0 2990.0,500.0 2980.0,500.0 2980.0,490.0 2970.0,490.0 2950.0,470.0 2940.0,470.0 2930.0,460.0 2930.0,450.0 2920.0,450.0 2900.0,430.0 2900.0,420.0 2890.0,420.0 2870.0,400.0 2870.0,390.0 2860.0,390.0 2850.0,380.0 2850.0,370.0 2830.0,350.0 2830.0,340.0 2820.0,340.0 2820.0,330.0 2810.0,320.0 2810.0,310.0 2800.0,300.0 2800.0,290.0 2790.0,280.0 2790.0,270.0 2780.0,260.0 2780.0,250.0 2770.0,240.0 2770.0,230.0 2760.0,220.0 2760.0,210.0 2750.0,200.0 2750.0,180.0 2740.0,170.0 2740.0,130.0 2730.0,120.0 2730.0,80.0 2720.0,70.0 2720.0,-70.0 2730.0,-80.0 2730.0,-120.0 2740.0,-130.0 2740.0,-170.0 2750.0,-180.0 2750.0,-200.0 2760.0,-210.0 2760.0,-220.0 2770.0,-230.0 2770.0,-240.0 2780.0,-250.0 2780.0,-260.0 2790.0,-270.0 2790.0,-280.0 2800.0,-290.0 2800.0,-300.0 2810.0,-310.0 2810.0,-320.0 2820.0,-330.0 2820.0,-340.0 2830.0,-340.0 2830.0,-350.0 2850.0,-370.0 2850.0,-380.0 2860.0,-390.0 2870.0,-390.0 2870.0,-400.0 2890.0,-420.0 2900.0,-420.0 2900.0,-430.0 2920.0,-450.0 2930.0,-450.0 2930.0,-460.0 2940.0,-470.0 2950.0,-470.0 2970.0,-490.0 2980.0,-490.0 2980.0,-500.0 2990.0,-500.0 3000.0,-510.0 3010.0,-510.0 3020.0,-520.0 3030.0,-520.0 3040.0,-530.0 3050.0,-530.0 3060.0,-540.0 3070.0,-540.0 3080.0,-550.0 3090.0,-550.0 3100.0,-560.0 3110.0,-560.0 3120.0,-570.0 3140.0,-570.0 3150.0,-580.0 3170.0,-580.0 3170.0,-1860.0 3315.59,-5000.0 3747.3900000000003,-5000.0"/>
<polygon class="l14d0" points="4890.0,-1760.0 4890.0,-580.0 4910.0,-580.0 4920.0,-570.0 4940.0,-570.0 4950.0,-560.0 4960.0,-560.0 4970.0,-550.0 4980.0,-550.0 4990.0,-540.0 5000.0,-540.0 5010.0,-530.0 5020.0,-530.0 5030.0,-520.0 5040.0,-520.0 5050.0,-510.0 5060.0,-510.0 5070.0,-500.0 5080.0,-500.0 5080.0,-490.0 5090.0,-490.0 5110.0,-470.0 5120.0,-470.0 5130.0,-460.0 5130.0,-450.0 5140.0,-450.0 5160.0,-430.0 5160.0,-420.0 5170.0,-420.0 5190.0,-400.0 5190.0,-390.0 5200.0,-390.0 5210.0,-380.0 5210.0,-370.0 5230.0,-350.0 5230.0,-340.0 5240.0,-340.0 5240.0,-330.0 5250.0,-320.0 5250.0,-310.0 5260.0,-300.0 5260.0,-290.0 5270.0,-280.0 5270.0,-270.0 5280.0,-260.0 5280.0,-250.0 5290.0,-240.0 5290.0,-230.0 5300.0,-220.0 5300.0,-210.0 5310.0,-200.0 5310.0,-180.0 5320.0,-170.0 5320.0,-130.0 5330.0,-120.0 5330.0,-80.0 5340.0,-70.0 5340.0,70.0 5330.0,80.0 5330.0,120.0 5320.0,130.0 5320.0,170.0 5310.0,180.0 5310.0,200.0 5300.0,210.0 5300.0,220.0 5290.0,230.0 5290.0,240.0 5280.0,250.0 5280.0,260.0 5270.0,270.0 5270.0,280.0 5260.0,290.0 5260.0,300.0 5250.0,310.0 5250.0,320.0 5240.0,330.0 5240.0,340.0 5230.0,340.0 5230.0,350.0 5210.0,370.0 5210.0,380.0 5200.0,390.0 5190.0,390.0 5190.0,400.0 5170.0,420.0 5160.0,420.0 5160.0,430.0 5140.0,450.0 5130.0,450.0 5130.0,460.0 5120.0,470.0 5110.0,470.0 5090.0,490.0 5080.0,490.0 5080.0,500.0 5070.0,500.0 5060.0,510.0 5050.0,510.0 5040.0,520.0 5030.0,520.0 5020.0,530.0 5010.0,530.0 5000.0,540.0 4990.0,540.0 4980.0,550.0 4970.0,550.0 4960.0,560.0 4950.0,560.0 4940.0,570.0 4920.0,570.0 4910.0,580.0 4870.0,580.0 4860.0,590.0 4820.0,590.0 4810.0,600.0 4670.0,600.0 4660.0,590.0 4620.0,590.0 4610.0,580.0 4570.0,580.0 4560.0,570.0 4540.0,570.0 4530.0,560.0 4520.0,560.0 4510.0,550.0 4500.0,550.0 4490.0,540.0 4480.0,540.0 4470.0,530.0 4460.0,530.0 4450.0,520.0 4440.0,520.0 4430.0,510.0 4420.0,510.0 4410.0,500.0 4400.0,500.0 4400.0,490.0 4390.0,490.0 4370.0,470.0 4360.0,470.0 4350.0,460.0 4350.0,450.0 4340.0,450.0 4320.0,430.0 4320.0,420.0 4310.0,420.0 4290.0,400.0 4290.0,390.0 4280.0,390.0 4270.0,380.0 4270.0,370.0 4250.0,350.0 4250.0,340.0 4240.0,340.0 4240.0,330.0 4230.0,320.0 4230.0,310.0 4220.0,300.0 4220.0,290.0 4210.0,280.0 4210.0,270.0 4200.0,260.0 4200.0,250.0 4190.0,240.0 4190.0,230.0 4180.0,220.0 4180.0,210.0 4170.0,200.0 4170.0,180.0 4160.0,170.0 4160.0,130.0 4150.0,120.0 4150.0,80.0 4140.0,70.0 4140.0,-70.0 4150.0,-80.0 4150.0,-120.0 4160.0,-130.0 4160.0,-170.0 4170.0,-180.0 4170.0,-200.0 4180.0,-210.0 4180.0,-220.0 4190.0,-230.0 4190.0,-240.0 4200.0,-250.0 4200.0,-260.0 4210.0,-270.0 4210.0,-280.0 4220.0,-290.0 4220.0,-300.0 4230.0,-310.0 4230.0,-320.0 4240.0,-330.0 4240.0,-340.0 4250.0,-340.0 4250.0,-350.0 4270.0,-370.0 4270.0,-380.0 4280.0,-390.0 4290.0,-390.0 4290.0,-400.0 4310.0,-420.0 4320.0,-420.0 4320.0,-430.0 4340.0,-450.0 4350.0,-450.0 4350.0,-460.0 4360.0,-470.0 4370.0,-470.0 4390.0,-490.0 4400.0,-490.0 4400.0,-500.0 4410.0,-500.0 4420.0,-510.0 4430.0,-510.0 4440.0,-520.0 4450.0,-520.0 4460.0,-530.0 4470.0,-530.0 4480.0,-540.0 4490.0,-540.0 4500.0,-550.0 4510.0,-550.0 4520.0,-560.0 4530.0,-560.0 4540.0,-570.0 4560.0,-570.0 4570.0,-580.0 4590.0,-580.0 4590.0,-1960.0 6646.1,-5000.0 7206.81,-5000.0"/>
<polygon class="l14d0" points="150.0,-1460.0 150.0,-300.0 450.0,-300.0 470.0,-290.0 750.0,-290.0 780.0,-280.0 970.0,-280.0 1020.0,-270.0 1150.0,-270.0 1230.0,-260.0 1310.0,-260.0 1510.0,-240.0 1620.0,-230.0 1750.0,-210.0 1880.0,-200.0 2020.0,-180.0 2160.0,-150.0 2290.0,-120.0 2400.0,-80.0 2470.0,-40.0 2500.0,0.0 2470.0,40.0 2400.0,80.0 2290.0,120.0 2160.0,150.0 2020.0,180.0 1880.0,200.0 1750.0,210.0 1620.0,230.0 1510.0,240.0 1310.0,260.0 1230.0,260.0 1150.0,270.0 1020.0,270.0 970.0,280.0 780.0,280.0 750.0,290.0 470.0,290.0 450.0,300.0 -450.0,300.0 -470.0,290.0 -750.0,290.0 -780.0,280.0 -970.0,280.0 -1020.0,270.0 -1150.0,270.0 -1230.0,260.0 -1310.0,260.0 -1510.0,240.0 -1620.0,230.0 -1750.0,210.0 -1880.0,200.0 -2020.0,180.0 -2160.0,150.0 -2290.0,120.0 -2400.0,80.0 -2470.0,40.0 -2500.0,0.0 -2470.0,-40.0 -2400.0,-80.0 -2290.0,-120.0 -2160.0,-150.0 -2020.0,-180.0 -1880.0,-200.0 -1750.0,-210.0 -1620.0,-230.0 -1510.0,-240.0 -1310.0,-260.0 -1230.0,-260.0 -1150.0,-270.0 -1020.0,-270.0 -970.0,-280.0 -780.0,-280.0 -750.0,-290.0 -470.0,-290.0 -450.0,-300.0 -150.0,-300.0 -150.0,-1460.0 -1061.69,-5000.0 -622.86,-5000.0"/>
<polygon class="l10d0" points="4180.0,1200.0 5683.28,5000.0 5165.51,5000.0 3880.0,1400.0 3880.0,-600.0 4180.0,-600.0"/>
<polygon class="l10d0" points="2760.0,1800.0 3543.83,5000.0 3099.03,5000.0 2460.0,1900.0 2460.0,-600.0 2760.0,-600.0"/>
<polygon class="l10d0" points="1940.3300000000002,5000.0 1439.83,5000.0 1200.0,520.0 -1200.0,520.0 -1200.0,220.0 1500.0,220.0"/>
<polygon class="l10d0" points="-5300.0,-1880.0 -5300.0,1880.0 -9521.3,5000.0 -10000.0,5000.0 -10000.0,4759.64 -5600.0,1680.0 -5600.0,-1680.0 -10000.0,-4716.43 -10000.0,-5000.0 -9578.060000000001,-5000.0"/>
<polygon class="l10d0" points="10000.0,-4716.43 5600.0,-1680.0 5600.0,1920.0 10000.0,4995.32 10000.0,5000.0 9201.76,5000.0 5300.0,2120.0 5300.0,-1880.0 9578.060000000001,-5000.0 10000.0,-5000.0"/>
<polygon class="l10d0" points="10000.0,1511.39 10000.0,1979.91 6880.0,1160.0 6040.0,1160.0 6040.0,860.0 7080.0,860.0"/>
<polygon class="l10d0" points="-6040.0,1160.0 -6880.0,1160.0 -10000.0,1979.91 -10000.0,1511.39 -7080.0,860.0 -6040.0,860.0"/>
<polygon class="l10d0" points="-2460.0,-1900.0 -2460.0,600.0 -2760.0,600.0 -2760.0,-1800.0 -4059.69,-5000.0 -3597.8,-5000.0"/>
<polygon class="l10d0" points="-3880.0,-1400.0 -3880.0,600.0 -4180.0,600.0 -4180.0,-1200.0 -6299.93,-5000.0 -5748.83,-5000.0"/>
<polygon class="l10d0" points="10000.0,-1482.54 7080.0,-860.0 6040.0,-860.0 6040.0,-1160.0 6880.0,-1160.0 10000.0,-1949.1100000000001"/>
<polygon class="l10d0" points="-6880.0,-1160.0 -6040.0,-1160.0 -6040.0,-860.0 -7080.0,-860.0 -10000.0,-1482.54 -10000.0,-1949.1100000000001"/>
<polygon class="l20d0" points="-3120.0,1650.0 -3880.0,1650.0 -3880.0,2450.0 -4794.41,5000.0 -5272.49,5000.0 -4180.0,2250.0 -4180.0,1650.0 -4940.0,1650.0 -4940.0,1050.0 -3120.0,1050.0"/>
<polygon class="l20d0" points="8040.0,240.0 10000.0,366.21000000000004 10000.0,806.81 7440.0,540.0 7440.0,-360.0 7740.0,-360.0"/>
<polygon class="l20d0" points="-7440.0,-540.0 -7440.0,360.0 -7740.0,360.0 -8040.0,-240.0 -10000.0,-346.76 -10000.0,-781.48"/>
<polygon class="l20d0" points="1420.0,-1240.0 1420.0,-460.0 -620.0,-460.0 -620.0,-880.0 620.0,-1240.0 236.64999999999998,-5000.0 1176.38,-5000.0"/>
<polygon class="l20d0" points="4180.0,-2250.0 4180.0,-1650.0 4940.0,-1650.0 4940.0,-1050.0 3120.0,-1050.0 3120.0,-1650.0 3880.0,-1650.0 3880.0,-2450.0 4397.25,-5000.0 4845.55,-5000.0"/>
<polygon class="l6d0" points="300.0,740.0 46.230000000000004,5000.0 -713.65,5000.0 -300.0,740.0 -300.0,440.0 300.0,440.0"/>
<polygon class="l6d0" points="10000.0,2843.99 10000.0,3618.27 6160.0,1380.0 6160.0,1080.0 6760.0,1080.0"/>
<polygon class="l6d0" points="-6160.0,1380.0 -10000.0,3618.27 -10000.0,2843.99 -6760.0,1080.0 -6160.0,1080.0"/>
<polygon class="l6d0" points="-6160.0,-1380.0 -6160.0,-1080.0 -6760.0,-1080.0 -10000.0,-2812.02 -10000.0,-3580.4700000000003"/>
<polygon class="l6d0" points="10000.0,-2812.02 6760.0,-1080.0 6160.0,-1080.0 6160.0,-1380.0 10000.0,-3580.4700000000003"/>
</g>
</svg>